<?xml version="1.0" encoding="iso-8859-1"?>
<!-- Generator: Adobe Illustrator 21.0.0, SVG Export Plug-In . SVG Version: 6.00 Build 0)  -->
<!DOCTYPE svg PUBLIC "-//W3C//DTD SVG 1.1//EN" "http://www.w3.org/Graphics/SVG/1.1/DTD/svg11.dtd">
<svg version="1.1" id="Layer_1" xmlns="http://www.w3.org/2000/svg" xmlns:xlink="http://www.w3.org/1999/xlink" x="0px" y="0px"
	 width="20.506px" height="20px" viewBox="0 0 20.506 20" enable-background="new 0 0 20.506 20" xml:space="preserve">
<path fill-rule="evenodd" clip-rule="evenodd" fill="#FFFFFF" d="M10.253,0C4.591,0,0,4.59,0,10.254c0,4.53,2.938,8.373,7.012,9.729
	c0.513,0.094,0.7-0.223,0.7-0.494c0-0.243-0.009-0.888-0.014-1.744c-2.852,0.62-3.454-1.374-3.454-1.374
	c-0.466-1.184-1.138-1.5-1.138-1.5c-0.931-0.636,0.07-0.623,0.07-0.623c1.029,0.073,1.57,1.057,1.57,1.057
	c0.915,1.567,2.4,1.114,2.984,0.852c0.093-0.663,0.358-1.114,0.651-1.371c-2.277-0.259-4.67-1.138-4.67-5.067
	c0-1.119,0.4-2.035,1.055-2.751C4.661,6.706,4.31,5.664,4.867,4.252c0,0,0.861-0.276,2.82,1.051
	c0.818-0.227,1.695-0.341,2.567-0.345c0.871,0.004,1.748,0.118,2.567,0.345c1.957-1.327,2.817-1.051,2.817-1.051
	c0.559,1.412,0.207,2.454,0.102,2.713c0.657,0.717,1.054,1.632,1.054,2.751c0,3.939-2.397,4.806-4.681,5.059
	c0.368,0.317,0.696,0.942,0.696,1.899c0,1.371-0.013,2.477-0.013,2.813c0,0.274,0.185,0.593,0.705,0.493
	c4.071-1.359,7.006-5.199,7.006-9.727C20.506,4.59,15.915,0,10.253,0z"/>
</svg>
