<?xml version="1.0" encoding="iso-8859-1"?>
<!-- Generator: Adobe Illustrator 21.0.0, SVG Export Plug-In . SVG Version: 6.00 Build 0)  -->
<!DOCTYPE svg PUBLIC "-//W3C//DTD SVG 1.1//EN" "http://www.w3.org/Graphics/SVG/1.1/DTD/svg11.dtd">
<svg version="1.1" id="Layer_1" xmlns="http://www.w3.org/2000/svg" xmlns:xlink="http://www.w3.org/1999/xlink" x="0px" y="0px"
	 width="20px" height="20.127px" viewBox="0 0 20 20.127" enable-background="new 0 0 20 20.127" xml:space="preserve">
<g>
	<path fill="#FFFFFF" d="M10.755,9.085V9.053c-0.006,0.01-0.014,0.021-0.02,0.031H10.755z"/>
	<path fill="#FFFFFF" d="M18.522,0.064H1.478C0.662,0.064,0,0.705,0,1.497v17.134c0,0.791,0.662,1.433,1.478,1.433h17.044
		c0.817,0,1.478-0.642,1.478-1.433V1.497C20,0.705,19.338,0.064,18.522,0.064z M6.062,16.806H3.041V7.775h3.021V16.806z
		 M4.552,6.542h-0.02c-1.013,0-1.669-0.694-1.669-1.56c0-0.886,0.676-1.56,1.709-1.56c1.033,0,1.669,0.674,1.69,1.56
		C6.261,5.848,5.605,6.542,4.552,6.542z M16.955,16.806h-3.02v-4.832c0-1.214-0.437-2.042-1.53-2.042
		c-0.834,0-1.331,0.558-1.55,1.098c-0.08,0.193-0.099,0.462-0.099,0.732v5.043H7.734c0,0,0.04-8.184,0-9.031h3.021v1.278
		c0.401-0.615,1.119-1.491,2.723-1.491c1.987,0,3.477,1.291,3.477,4.066V16.806z"/>
</g>
</svg>
